<svg height="120px" width="120px" id="eV3RMQXhoJF1" xmlns="http://www.w3.org/2000/svg" xmlns:xlink="http://www.w3.org/1999/xlink" viewBox="0 0 16.4 16.4" shape-rendering="geometricPrecision" text-rendering="geometricPrecision" style="background-color:transparent"><g transform="translate(0 12.3)"><rect width="4" height="4" rx="0" ry="0" transform="translate(12.3 0)" fill="#020817" stroke-width="0"/><rect width="4" height="4" rx="0" ry="0" transform="translate(8.2 0)" fill="#020817" stroke-width="0"/><rect width="4" height="4" rx="0" ry="0" transform="translate(4.1 0)" fill="#020817" stroke-width="0"/><rect width="4" height="4" rx="0" ry="0" fill="#020817" stroke-width="0"/></g><g transform="translate(0 8.2)"><rect width="4" height="4" rx="0" ry="0" transform="translate(12.3 0)" fill="#020817" stroke-width="0"/><rect width="4" height="4" rx="0" ry="0" transform="translate(8.2 0)" fill="#020817" stroke-width="0"/><rect width="4" height="4" rx="0" ry="0" transform="translate(4.1 0)" fill="#020817" stroke-width="0"/><rect width="4" height="4" rx="0" ry="0" fill="#020817" stroke-width="0"/></g><g transform="translate(0 4.1)"><rect width="4" height="4" rx="0" ry="0" transform="translate(12.3 0)" fill="#020817" stroke-width="0"/><rect width="4" height="4" rx="0" ry="0" transform="translate(8.2 0)" fill="#020817" stroke-width="0"/><rect width="4" height="4" rx="0" ry="0" transform="translate(4.1 0)" fill="#020817" stroke-width="0"/><rect width="4" height="4" rx="0" ry="0" fill="#020817" stroke-width="0"/></g><g><rect width="4" height="4" rx="0" ry="0" transform="translate(12.3 0)" fill="#020817" stroke-width="0"/><rect width="4" height="4" rx="0" ry="0" transform="translate(8.2 0)" fill="#020817" stroke-width="0"/><rect width="4" height="4" rx="0" ry="0" transform="translate(4.1 0)" fill="#020817" stroke-width="0"/><rect width="4" height="4" rx="0" ry="0" fill="#020817" stroke-width="0"/></g></svg>